<svg id="Layer_1" data-name="Layer 1" xmlns="http://www.w3.org/2000/svg" viewBox="0 0 601 415.13"><defs><style>.cls-1{fill:#fff;}.cls-1,.cls-2{stroke:#000;}.cls-1,.cls-2,.cls-3{stroke-miterlimit:10;}.cls-2{fill:none;}.cls-3{fill:#bebebe;stroke:gray;stroke-width:2px;}</style></defs><path class="cls-1" d="M8.47,94.14c54.62,29.77,543.91,40.79,583.22,0C617,206.46,576.4,461.92,576.4,461.92s2.66-38.61-8-54.59-28.63,6-28.63,6S510.49,378,494.51,382.7s-64.58,63.24-65.24,82.55c-2-18-95.88-59.92-125.57,2.66,0,0-4.26-24.63-10.25-16s-14,53.92-14,53.92-21.31-84.55-54.6-91.87-49.93,23.3-49.93,23.3-3.33-48.6-24.63-56.59S60.68,369,37.79,403.34c-21.3,32-22.63,79.22-22.63,79.22S-13.92,139.79,8.47,94.14Z" transform="translate(0.5 -93.12)"/><path class="cls-2" d="M341.19,174.28C244.36,187.7,57.73,133.52,8.47,94.14" transform="translate(0.5 -93.12)"/><path class="cls-2" d="M300,156.22c161.22,0,278.49-37.81,291.69-62.08" transform="translate(0.5 -93.12)"/><path class="cls-2" d="M591.69,94.14c-95.48,51.42-346.75,51.17-376.93,47.41" transform="translate(0.5 -93.12)"/><path class="cls-3" d="M435.37,242.36a37.94,37.94,0,0,1-33,6.38S333.83,212.82,300,212.82s-102.35,35.92-102.35,35.92a37.94,37.94,0,0,1-33-6.38l-3.88-3,5.19,9.71a37.94,37.94,0,0,0,37.65,19.81S254.9,241,300,241s96.41,27.93,96.41,27.93a37.94,37.94,0,0,0,37.65-19.81l5.19-9.71Z" transform="translate(0.5 -93.12)"/><path class="cls-3" d="M300,314.89c-40.16,0-53.38-28.18-53.38-28.18,0,34.13,18.81,50.23,35,50.23S300,387.18,300,387.18s2.21-50.24,18.39-50.24,35-14.59,35-50.23C353.38,286.71,341.74,314.89,300,314.89Z" transform="translate(0.5 -93.12)"/></svg>